<svg height="32" viewBox="0 0 32 32" width="32" xmlns="http://www.w3.org/2000/svg" xmlns:xlink="http://www.w3.org/1999/xlink"><defs><filter id="a" height="111.7%" width="111.7%" x="-5.8%" y="-4.2%"><feOffset dy=".5" in="SourceAlpha" result="shadowOffsetOuter1"/><feGaussianBlur in="shadowOffsetOuter1" result="shadowBlurOuter1" stdDeviation=".5"/><feComposite in="shadowBlurOuter1" in2="SourceAlpha" operator="out" result="shadowBlurOuter1"/><feColorMatrix in="shadowBlurOuter1" values="0 0 0 0 0 0 0 0 0 0 0 0 0 0 0 0 0 0 0.199473505 0"/></filter><filter id="b" height="114.6%" width="123.3%" x="-11.7%" y="-5.2%"><feOffset dy=".5" in="SourceAlpha" result="shadowOffsetOuter1"/><feGaussianBlur in="shadowOffsetOuter1" result="shadowBlurOuter1" stdDeviation=".5"/><feComposite in="shadowBlurOuter1" in2="SourceAlpha" operator="out" result="shadowBlurOuter1"/><feColorMatrix in="shadowBlurOuter1" values="0 0 0 0 0 0 0 0 0 0 0 0 0 0 0 0 0 0 0.204257246 0"/></filter><linearGradient id="c" x1="50%" x2="50%" y1="0%" y2="100%"><stop offset="0" stop-color="#fff" stop-opacity=".5"/><stop offset="1" stop-opacity=".5"/></linearGradient><circle id="d" cx="16" cy="15" r="15"/><path id="e" d="m16.498 20.968 7.502-4.352-7.502 10.379-7.498-10.38 7.498 4.351zm0-17.968 7.497 12.22-7.497 4.353-7.498-4.353z"/></defs><g fill="none" fill-rule="evenodd"><use fill="#000" filter="url(#a)" xlink:href="#d"/><use fill="#627eea" xlink:href="#d"/><use fill="url(#c)" xlink:href="#d"/><circle cx="16" cy="15" r="14.5" stroke="#000" stroke-opacity=".097"/><g fill-rule="nonzero"><g><use fill="#000" filter="url(#b)" xlink:href="#e"/><use fill="none" xlink:href="#e"/></g><g fill="#fff"><path d="m16.498 3v8.87l7.497 3.35z" fill-opacity=".602"/><path d="m16.498 3-7.498 12.22 7.498-3.35z"/><path d="m16.498 20.968v6.027l7.502-10.379z" fill-opacity=".602"/><path d="m16.498 26.995v-6.028l-7.498-4.351z"/><path d="m16.498 19.573 7.497-4.353-7.497-3.348z" fill-opacity=".2"/><path d="m9 15.22 7.498 4.353v-7.701z" fill-opacity=".602"/></g></g></g></svg>